<svg width="226" height="226" viewBox="0 0 226 226" fill="none" xmlns="http://www.w3.org/2000/svg">
<rect width="226" height="226" fill="white"/>
<path d="M187 113C187 153.9 153.9 187 113 187C72.1 187 39 153.9 39 113C39 72.1 72.1 39 113 39C153.9 39 187 72.1 187 113Z" fill="#F0F1F2"/>
<mask id="mask0_2_524" style="mask-type:luminance" maskUnits="userSpaceOnUse" x="41" y="39" width="146" height="148">
<path d="M187 113C187 153.9 153.9 187 113 187H41.8721V39H113C153.9 39 187 72.1 187 113Z" fill="white"/>
</mask>
<g mask="url(#mask0_2_524)">
<g filter="url(#filter0_d_2_524)">
<path d="M184.012 57H56.359C54.512 57 53 58.8 53 61V165C53 167.2 54.512 169 56.36 169H184.012C185.86 169 187.372 167.2 187.372 165V61C187.372 58.8 185.86 57 184.012 57Z" fill="white"/>
</g>
</g>
<path d="M56.3721 57C54.1721 57 52.3721 58.8 52.3721 61V165C52.3721 167.2 54.1721 169 56.3721 169H132.372V57H56.3721Z" fill="#5BA7B1"/>
<path d="M52.3721 120.488V61C52.3721 58.8 54.1721 57 56.3721 57H132.372V123.799C122.539 133.678 108.928 139.793 93.8891 139.793C77.2351 139.793 62.3311 132.293 52.3721 120.488Z" fill="#7FBEC6"/>
<path fill-rule="evenodd" clip-rule="evenodd" d="M72.0569 143.589L85.7739 149.108L98.1389 156.372L99.8209 128.608C99.8209 128.608 114.962 132.483 117.288 128.353C119.22 124.926 116.714 122.745 117.954 122.165C118.688 121.821 119.917 119.433 118.394 118.243C119.509 117.745 119.33 115.958 119.132 115.407C118.84 114.6 118.082 114.887 118.61 113.537C119.013 112.509 120.895 112.505 120.828 110.451C120.763 108.397 115.042 103.102 114.175 101.219C113.625 100.028 113.278 94.468 112.182 92.152C110.273 88.118 106.992 85.236 103.596 83.573C101.881 82.729 100.036 82.1806 98.1389 81.951C96.2209 81.73 94.1319 81.569 92.2089 81.681C87.5279 81.958 83.0799 84.144 79.4659 87.088C76.3919 89.597 73.7299 92.768 72.4449 96.55C70.8469 101.25 71.5599 106.635 74.0779 110.898C75.8039 113.82 84.9029 117.069 85.7669 120.363L72.0569 143.589Z" fill="#975D48"/>
<path fill-rule="evenodd" clip-rule="evenodd" d="M58.3721 169H110.372C110.372 169 96.8721 130 75.8721 136.5L58.3721 169Z" fill="#181C21"/>
<path fill-rule="evenodd" clip-rule="evenodd" d="M63.3719 130.5C69.8719 134.5 76.8969 139.378 96.1579 139.378V123.064C96.1579 119.301 92.4479 113.838 91.3019 111.515C90.6399 110.169 90.1439 108.541 90.8419 107.216C91.1949 106.55 91.8029 106.058 92.4119 105.607C95.8119 103.092 99.7189 101.184 102.613 98.099C105.485 95.035 107.148 90.886 107.24 86.704C112.391 89.828 113.492 97.37 113.504 97.405C114.814 96.251 116.352 94.961 116.352 92.322C116.352 82.47 93.0089 68.132 74.0779 83.638C55.3499 98.976 63.3719 130.5 63.3719 130.5Z" fill="#F0F1F2"/>
<path d="M182.372 109H148.372C147.272 109 146.372 108.1 146.372 107C146.372 105.9 147.272 105 148.372 105H182.372C183.472 105 184.372 105.9 184.372 107C184.372 108.1 183.472 109 182.372 109ZM182.372 99H148.372C147.272 99 146.372 98.1 146.372 97C146.372 95.9 147.272 95 148.372 95H182.372C183.472 95 184.372 95.9 184.372 97C184.372 98.1 183.472 99 182.372 99Z" fill="#E8E9EB"/>
<path d="M171.372 147H151.372C148.572 147 146.372 144.8 146.372 142C146.372 139.2 148.572 137 151.372 137H171.372C174.172 137 176.372 139.2 176.372 142C176.372 144.8 174.172 147 171.372 147Z" fill="#108060"/>
<path d="M178.757 79C179.77 80.9575 180.695 82.9596 181.529 85H149.372C147.672 85 146.372 83.7 146.372 82C146.372 80.3 147.672 79 149.372 79H178.757Z" fill="#E8E9EB"/>
<defs>
<filter id="filter0_d_2_524" x="48" y="53" width="144.372" height="122" filterUnits="userSpaceOnUse" color-interpolation-filters="sRGB">
<feFlood flood-opacity="0" result="BackgroundImageFix"/>
<feColorMatrix in="SourceAlpha" type="matrix" values="0 0 0 0 0 0 0 0 0 0 0 0 0 0 0 0 0 0 127 0" result="hardAlpha"/>
<feOffset dy="1"/>
<feGaussianBlur stdDeviation="2.5"/>
<feColorMatrix type="matrix" values="0 0 0 0 0 0 0 0 0 0 0 0 0 0 0 0 0 0 0.3 0"/>
<feBlend mode="normal" in2="BackgroundImageFix" result="effect1_dropShadow_2_524"/>
<feBlend mode="normal" in="SourceGraphic" in2="effect1_dropShadow_2_524" result="shape"/>
</filter>
</defs>
</svg>
